<mxfile host="app.diagrams.net" agent="Mozilla/5.0 (Windows NT 10.0; Win64; x64) AppleWebKit/537.36 (KHTML, like Gecko) Chrome/129.0.0.0 Safari/537.36 Edg/129.0.0.0" version="24.7.17">
  <diagram name="Page-1" id="tpUfHKGMqxLuyBJU9GBw">
    <mxGraphModel dx="784" dy="1133" grid="1" gridSize="10" guides="1" tooltips="1" connect="1" arrows="1" fold="1" page="1" pageScale="1" pageWidth="850" pageHeight="1100" math="0" shadow="0">
      <root>
        <mxCell id="0" />
        <mxCell id="1" parent="0" />
        <mxCell id="CeFuTE_zYRD2yVkvAtF0-3" style="edgeStyle=orthogonalEdgeStyle;rounded=0;orthogonalLoop=1;jettySize=auto;html=1;" edge="1" parent="1" source="CeFuTE_zYRD2yVkvAtF0-1" target="CeFuTE_zYRD2yVkvAtF0-2">
          <mxGeometry relative="1" as="geometry" />
        </mxCell>
        <mxCell id="CeFuTE_zYRD2yVkvAtF0-1" value="HTTP API Gateway" style="outlineConnect=0;dashed=0;verticalLabelPosition=bottom;verticalAlign=top;align=center;html=1;shape=mxgraph.aws3.api_gateway;fillColor=#D9A741;gradientColor=none;" vertex="1" parent="1">
          <mxGeometry x="260" y="106.19999999999999" width="76.5" height="93" as="geometry" />
        </mxCell>
        <mxCell id="CeFuTE_zYRD2yVkvAtF0-8" style="edgeStyle=orthogonalEdgeStyle;rounded=0;orthogonalLoop=1;jettySize=auto;html=1;" edge="1" parent="1" source="CeFuTE_zYRD2yVkvAtF0-2" target="CeFuTE_zYRD2yVkvAtF0-7">
          <mxGeometry relative="1" as="geometry" />
        </mxCell>
        <mxCell id="CeFuTE_zYRD2yVkvAtF0-13" style="edgeStyle=orthogonalEdgeStyle;rounded=0;orthogonalLoop=1;jettySize=auto;html=1;exitX=0.855;exitY=0.855;exitDx=0;exitDy=0;exitPerimeter=0;" edge="1" parent="1" source="CeFuTE_zYRD2yVkvAtF0-2" target="CeFuTE_zYRD2yVkvAtF0-12">
          <mxGeometry relative="1" as="geometry">
            <Array as="points">
              <mxPoint x="540" y="178" />
            </Array>
          </mxGeometry>
        </mxCell>
        <mxCell id="CeFuTE_zYRD2yVkvAtF0-2" value="Licensing Lambda" style="outlineConnect=0;dashed=0;verticalLabelPosition=bottom;verticalAlign=top;align=center;html=1;shape=mxgraph.aws3.lambda_function;fillColor=#F58534;gradientColor=none;" vertex="1" parent="1">
          <mxGeometry x="410" y="116.69999999999999" width="69" height="72" as="geometry" />
        </mxCell>
        <mxCell id="CeFuTE_zYRD2yVkvAtF0-5" style="edgeStyle=orthogonalEdgeStyle;rounded=0;orthogonalLoop=1;jettySize=auto;html=1;" edge="1" parent="1" source="CeFuTE_zYRD2yVkvAtF0-4" target="CeFuTE_zYRD2yVkvAtF0-1">
          <mxGeometry relative="1" as="geometry" />
        </mxCell>
        <mxCell id="CeFuTE_zYRD2yVkvAtF0-4" value="External Wordpress with&lt;div&gt;&amp;nbsp;Woocommerce Webhook&lt;/div&gt;&lt;div&gt;(not in AWS)&lt;/div&gt;" style="dashed=0;outlineConnect=0;html=1;align=center;labelPosition=center;verticalLabelPosition=bottom;verticalAlign=top;shape=mxgraph.weblogos.wordpress;fillColor=#00A7DA;strokeColor=none" vertex="1" parent="1">
          <mxGeometry x="110" y="123.3" width="66.60000000000001" height="65.4" as="geometry" />
        </mxCell>
        <mxCell id="CeFuTE_zYRD2yVkvAtF0-29" style="edgeStyle=orthogonalEdgeStyle;rounded=0;orthogonalLoop=1;jettySize=auto;html=1;" edge="1" parent="1" source="CeFuTE_zYRD2yVkvAtF0-6" target="CeFuTE_zYRD2yVkvAtF0-12">
          <mxGeometry relative="1" as="geometry" />
        </mxCell>
        <mxCell id="CeFuTE_zYRD2yVkvAtF0-6" value="Plugin in&amp;nbsp;&lt;div&gt;Windows Form&lt;div&gt;.NET Framework 8&lt;/div&gt;&lt;/div&gt;" style="outlineConnect=0;dashed=0;verticalLabelPosition=bottom;verticalAlign=top;align=center;html=1;shape=mxgraph.aws3.android;fillColor=#115193;gradientColor=none;" vertex="1" parent="1">
          <mxGeometry x="116.1" y="530" width="73.5" height="84" as="geometry" />
        </mxCell>
        <mxCell id="CeFuTE_zYRD2yVkvAtF0-9" style="edgeStyle=orthogonalEdgeStyle;rounded=0;orthogonalLoop=1;jettySize=auto;html=1;exitX=0;exitY=0.5;exitDx=0;exitDy=0;exitPerimeter=0;" edge="1" parent="1" source="CeFuTE_zYRD2yVkvAtF0-7" target="CeFuTE_zYRD2yVkvAtF0-2">
          <mxGeometry relative="1" as="geometry" />
        </mxCell>
        <mxCell id="CeFuTE_zYRD2yVkvAtF0-7" value="DynamoDB&lt;div&gt;License Table&lt;/div&gt;" style="outlineConnect=0;dashed=0;verticalLabelPosition=bottom;verticalAlign=top;align=center;html=1;shape=mxgraph.aws3.dynamo_db;fillColor=#2E73B8;gradientColor=none;" vertex="1" parent="1">
          <mxGeometry x="610" y="112.19999999999999" width="72" height="81" as="geometry" />
        </mxCell>
        <mxCell id="CeFuTE_zYRD2yVkvAtF0-10" value="Sends email and product attributes when order is completed" style="text;html=1;align=center;verticalAlign=middle;whiteSpace=wrap;rounded=0;" vertex="1" parent="1">
          <mxGeometry x="130" y="70" width="120" height="30" as="geometry" />
        </mxCell>
        <mxCell id="CeFuTE_zYRD2yVkvAtF0-11" value="Registers new email or updates # of licenses bought for product" style="text;html=1;align=center;verticalAlign=middle;whiteSpace=wrap;rounded=0;" vertex="1" parent="1">
          <mxGeometry x="479" y="86.7" width="120" height="30" as="geometry" />
        </mxCell>
        <mxCell id="CeFuTE_zYRD2yVkvAtF0-16" style="edgeStyle=orthogonalEdgeStyle;rounded=0;orthogonalLoop=1;jettySize=auto;html=1;" edge="1" parent="1" source="CeFuTE_zYRD2yVkvAtF0-12" target="CeFuTE_zYRD2yVkvAtF0-15">
          <mxGeometry relative="1" as="geometry" />
        </mxCell>
        <mxCell id="CeFuTE_zYRD2yVkvAtF0-12" value="Amazon Cognito" style="sketch=0;outlineConnect=0;fontColor=#232F3E;gradientColor=none;strokeColor=#ffffff;fillColor=#232F3E;dashed=0;verticalLabelPosition=middle;verticalAlign=bottom;align=center;html=1;whiteSpace=wrap;fontSize=10;fontStyle=1;spacing=3;shape=mxgraph.aws4.productIcon;prIcon=mxgraph.aws4.cognito;" vertex="1" parent="1">
          <mxGeometry x="499" y="340" width="80" height="110" as="geometry" />
        </mxCell>
        <mxCell id="CeFuTE_zYRD2yVkvAtF0-14" value="If user doesn&#39;t exist, creates new one using email" style="text;html=1;align=center;verticalAlign=middle;whiteSpace=wrap;rounded=0;" vertex="1" parent="1">
          <mxGeometry x="400" y="260" width="130" height="30" as="geometry" />
        </mxCell>
        <mxCell id="CeFuTE_zYRD2yVkvAtF0-28" style="edgeStyle=orthogonalEdgeStyle;rounded=0;orthogonalLoop=1;jettySize=auto;html=1;exitX=0;exitY=0.48;exitDx=0;exitDy=0;exitPerimeter=0;" edge="1" parent="1" source="CeFuTE_zYRD2yVkvAtF0-15">
          <mxGeometry relative="1" as="geometry">
            <mxPoint x="180" y="393" as="targetPoint" />
          </mxGeometry>
        </mxCell>
        <mxCell id="CeFuTE_zYRD2yVkvAtF0-15" value="Simple Email Service" style="outlineConnect=0;dashed=0;verticalLabelPosition=bottom;verticalAlign=top;align=center;html=1;shape=mxgraph.aws3.ses;fillColor=#D9A741;gradientColor=none;" vertex="1" parent="1">
          <mxGeometry x="320" y="348.5" width="79.5" height="93" as="geometry" />
        </mxCell>
        <mxCell id="CeFuTE_zYRD2yVkvAtF0-17" value="Sends Email to verify user" style="text;html=1;align=center;verticalAlign=middle;whiteSpace=wrap;rounded=0;" vertex="1" parent="1">
          <mxGeometry x="230" y="348.5" width="60" height="30" as="geometry" />
        </mxCell>
        <mxCell id="CeFuTE_zYRD2yVkvAtF0-23" style="edgeStyle=orthogonalEdgeStyle;rounded=0;orthogonalLoop=1;jettySize=auto;html=1;" edge="1" parent="1" source="CeFuTE_zYRD2yVkvAtF0-18" target="CeFuTE_zYRD2yVkvAtF0-4">
          <mxGeometry relative="1" as="geometry">
            <Array as="points">
              <mxPoint x="30" y="373.5" />
              <mxPoint x="30" y="156" />
            </Array>
          </mxGeometry>
        </mxCell>
        <mxCell id="CeFuTE_zYRD2yVkvAtF0-26" style="edgeStyle=orthogonalEdgeStyle;rounded=0;orthogonalLoop=1;jettySize=auto;html=1;" edge="1" parent="1" source="CeFuTE_zYRD2yVkvAtF0-18" target="CeFuTE_zYRD2yVkvAtF0-6">
          <mxGeometry relative="1" as="geometry" />
        </mxCell>
        <mxCell id="CeFuTE_zYRD2yVkvAtF0-18" value="" style="verticalLabelPosition=bottom;html=1;verticalAlign=top;align=center;strokeColor=none;fillColor=#00BEF2;shape=mxgraph.azure.user;" vertex="1" parent="1">
          <mxGeometry x="129.1" y="370" width="47.5" height="50" as="geometry" />
        </mxCell>
        <mxCell id="CeFuTE_zYRD2yVkvAtF0-22" style="edgeStyle=orthogonalEdgeStyle;rounded=0;orthogonalLoop=1;jettySize=auto;html=1;entryX=0.5;entryY=0;entryDx=0;entryDy=0;entryPerimeter=0;" edge="1" parent="1" source="CeFuTE_zYRD2yVkvAtF0-4" target="CeFuTE_zYRD2yVkvAtF0-18">
          <mxGeometry relative="1" as="geometry">
            <Array as="points">
              <mxPoint x="70" y="156" />
              <mxPoint x="70" y="349" />
            </Array>
          </mxGeometry>
        </mxCell>
        <mxCell id="CeFuTE_zYRD2yVkvAtF0-24" value="Buys Digital Product" style="text;html=1;align=center;verticalAlign=middle;whiteSpace=wrap;rounded=0;" vertex="1" parent="1">
          <mxGeometry x="40" y="390" width="60" height="30" as="geometry" />
        </mxCell>
        <mxCell id="CeFuTE_zYRD2yVkvAtF0-25" value="Sends Download Link of Plugin" style="text;html=1;align=center;verticalAlign=middle;whiteSpace=wrap;rounded=0;" vertex="1" parent="1">
          <mxGeometry x="100" y="310" width="100" height="30" as="geometry" />
        </mxCell>
        <mxCell id="CeFuTE_zYRD2yVkvAtF0-27" value="Installs Plugin and Logs in" style="text;html=1;align=center;verticalAlign=middle;whiteSpace=wrap;rounded=0;" vertex="1" parent="1">
          <mxGeometry x="90" y="470" width="60" height="30" as="geometry" />
        </mxCell>
        <mxCell id="CeFuTE_zYRD2yVkvAtF0-30" value="Logs in and Callback with email" style="text;html=1;align=center;verticalAlign=middle;whiteSpace=wrap;rounded=0;" vertex="1" parent="1">
          <mxGeometry x="309.75" y="535" width="100" height="30" as="geometry" />
        </mxCell>
        <mxCell id="CeFuTE_zYRD2yVkvAtF0-31" style="edgeStyle=orthogonalEdgeStyle;rounded=0;orthogonalLoop=1;jettySize=auto;html=1;entryX=1;entryY=0.5;entryDx=0;entryDy=0;entryPerimeter=0;" edge="1" parent="1" source="CeFuTE_zYRD2yVkvAtF0-12" target="CeFuTE_zYRD2yVkvAtF0-6">
          <mxGeometry relative="1" as="geometry">
            <Array as="points">
              <mxPoint x="539" y="572" />
            </Array>
          </mxGeometry>
        </mxCell>
        <mxCell id="CeFuTE_zYRD2yVkvAtF0-32" style="edgeStyle=orthogonalEdgeStyle;rounded=0;orthogonalLoop=1;jettySize=auto;html=1;entryX=1;entryY=0.5;entryDx=0;entryDy=0;entryPerimeter=0;" edge="1" parent="1" source="CeFuTE_zYRD2yVkvAtF0-6" target="CeFuTE_zYRD2yVkvAtF0-7">
          <mxGeometry relative="1" as="geometry">
            <Array as="points">
              <mxPoint x="720" y="590" />
              <mxPoint x="720" y="153" />
            </Array>
          </mxGeometry>
        </mxCell>
        <mxCell id="CeFuTE_zYRD2yVkvAtF0-33" value="Sends hardware fingerprint and Registers or validates license" style="text;html=1;align=center;verticalAlign=middle;whiteSpace=wrap;rounded=0;" vertex="1" parent="1">
          <mxGeometry x="568" y="550" width="142" height="30" as="geometry" />
        </mxCell>
        <mxCell id="CeFuTE_zYRD2yVkvAtF0-34" style="edgeStyle=orthogonalEdgeStyle;rounded=0;orthogonalLoop=1;jettySize=auto;html=1;" edge="1" parent="1" source="CeFuTE_zYRD2yVkvAtF0-7">
          <mxGeometry relative="1" as="geometry">
            <mxPoint x="190" y="580" as="targetPoint" />
            <Array as="points">
              <mxPoint x="720" y="153" />
              <mxPoint x="720" y="590" />
              <mxPoint x="190" y="590" />
            </Array>
          </mxGeometry>
        </mxCell>
        <mxCell id="CeFuTE_zYRD2yVkvAtF0-35" value="Sends validation" style="text;html=1;align=center;verticalAlign=middle;whiteSpace=wrap;rounded=0;" vertex="1" parent="1">
          <mxGeometry x="720" y="300" width="60" height="30" as="geometry" />
        </mxCell>
        <mxCell id="CeFuTE_zYRD2yVkvAtF0-36" value="Licensing DLL" style="verticalLabelPosition=bottom;html=1;verticalAlign=top;align=center;strokeColor=none;fillColor=#00BEF2;shape=mxgraph.azure.code_file;pointerEvents=1;" vertex="1" parent="1">
          <mxGeometry x="140" y="710" width="47.5" height="50" as="geometry" />
        </mxCell>
        <mxCell id="CeFuTE_zYRD2yVkvAtF0-37" style="edgeStyle=orthogonalEdgeStyle;rounded=0;orthogonalLoop=1;jettySize=auto;html=1;entryX=0;entryY=0.5;entryDx=0;entryDy=0;entryPerimeter=0;" edge="1" parent="1" source="CeFuTE_zYRD2yVkvAtF0-6" target="CeFuTE_zYRD2yVkvAtF0-36">
          <mxGeometry relative="1" as="geometry">
            <Array as="points">
              <mxPoint x="60" y="572" />
              <mxPoint x="60" y="735" />
            </Array>
          </mxGeometry>
        </mxCell>
        <mxCell id="CeFuTE_zYRD2yVkvAtF0-38" value="Gets hardware fingerprint and plugin attributes" style="text;html=1;align=center;verticalAlign=middle;whiteSpace=wrap;rounded=0;" vertex="1" parent="1">
          <mxGeometry x="50" y="770" width="60" height="30" as="geometry" />
        </mxCell>
        <mxCell id="CeFuTE_zYRD2yVkvAtF0-39" style="edgeStyle=orthogonalEdgeStyle;rounded=0;orthogonalLoop=1;jettySize=auto;html=1;entryX=0;entryY=0.5;entryDx=0;entryDy=0;entryPerimeter=0;" edge="1" parent="1" source="CeFuTE_zYRD2yVkvAtF0-36" target="CeFuTE_zYRD2yVkvAtF0-6">
          <mxGeometry relative="1" as="geometry">
            <Array as="points">
              <mxPoint x="60" y="735" />
              <mxPoint x="60" y="572" />
            </Array>
          </mxGeometry>
        </mxCell>
        <mxCell id="CeFuTE_zYRD2yVkvAtF0-40" style="edgeStyle=orthogonalEdgeStyle;rounded=0;orthogonalLoop=1;jettySize=auto;html=1;exitX=0.5;exitY=1;exitDx=0;exitDy=0;" edge="1" parent="1" source="CeFuTE_zYRD2yVkvAtF0-38" target="CeFuTE_zYRD2yVkvAtF0-38">
          <mxGeometry relative="1" as="geometry" />
        </mxCell>
      </root>
    </mxGraphModel>
  </diagram>
</mxfile>
